<svg width="110" height="110" viewBox="0 0 110 110" fill="none" xmlns="http://www.w3.org/2000/svg">
<rect width="110" height="110" rx="10" fill="#7E4DE7" fill-opacity="0.85"/>
<path d="M69.1125 32.683L52.2641 27.0669L34.52 32.9817V39.2367H36.2768V34.2478L51.2686 29.231V37.3627H53.0255V29.192L68.1344 34.2285V45.4943L52.2348 40.1848L46.1775 42.2087C44.0807 40.9545 41.6378 40.2323 39.0218 40.2323C31.3042 40.2323 25 46.5108 25 54.2284C25 60.6906 29.4836 66.1429 35.3398 67.7461V83.275H42.7185V67.7142C46.4664 66.6899 49.5116 64.1957 51.2685 60.906V66.7326L45.3395 68.7187L45.9098 70.3853L52.2566 68.2721L69.1434 73.8999L85 67.9548V26.7252L69.1125 32.683ZM40.9616 81.5181H37.0966V68.0989C37.7993 68.1814 38.3351 68.2246 38.9705 68.2246C39.6464 68.2246 40.3759 68.1754 40.9616 68.0823V81.5181ZM39.0291 66.4678C32.2804 66.4678 26.7897 60.9773 26.7897 54.2284C26.7897 47.4797 32.2803 41.989 39.0291 41.989C41.5793 41.989 43.9497 42.7735 45.9122 44.1132L45.9244 44.1497L45.9517 44.1406C49.1603 46.3494 51.2685 50.0471 51.2685 54.2284C51.2685 60.9773 45.7779 66.4678 39.0291 66.4678ZM51.2685 47.5507C50.4487 45.9855 49.2715 44.6007 47.9107 43.468L51.2685 42.3488V47.5507ZM68.1343 71.7298L53.0254 66.6937V55.4277L68.1343 60.464V71.7298ZM83.2431 66.7375L69.891 71.7225V60.4812L83.2431 55.496V66.7375ZM83.2431 53.6196L69.891 58.6048V50.4805H68.1341V58.6121L53.0254 53.5757V42.3098L69.1178 47.6642L83.2431 42.3782V53.6196ZM83.2431 40.5018L69.891 45.4869V34.2455L83.2431 29.2603V40.5018Z" fill="white"/>
<path d="M43.7725 36.5425H41.8986V38.2994H43.7725V36.5425Z" fill="white"/>
<path d="M81.2519 45.9124H79.3779V47.6692H81.2519V45.9124Z" fill="white"/>
<path d="M60.6382 64.652H58.7643V66.4089H60.6382V64.652Z" fill="white"/>
<path d="M39.0291 43.98C36.3634 43.98 33.8384 44.9982 31.9192 46.8473L33.1382 48.1126C34.7283 46.5806 36.8204 45.7369 39.029 45.7369C43.7112 45.7369 47.5204 49.546 47.5204 54.2283C47.5204 58.9105 43.7112 62.7197 39.029 62.7197C34.3468 62.7197 30.5376 58.9105 30.5376 54.2283C30.5376 53.047 30.7751 51.9043 31.2438 50.8321L29.6341 50.1286C29.0679 51.4241 28.7808 52.8034 28.7808 54.2283C28.7808 59.8793 33.3781 64.4766 39.0291 64.4766C44.6801 64.4766 49.2774 59.8793 49.2774 54.2283C49.2774 48.5774 44.6801 43.98 39.0291 43.98Z" fill="white"/>
</svg>
