<svg width="110" height="110" viewBox="0 0 110 110" fill="none" xmlns="http://www.w3.org/2000/svg">
<rect width="110" height="110" rx="10" fill="#7E4DE7" fill-opacity="0.85"/>
<g clip-path="url(#clip0)">
<path d="M46.1847 31.3794C45.7138 30.5304 44.6439 30.2239 43.795 30.6949C39.8329 32.8927 36.4307 36.0644 33.9564 39.8673C33.427 40.6809 33.6573 41.7698 34.471 42.2993C35.2847 42.8287 36.3735 42.5983 36.903 41.7846C39.0653 38.4613 42.0382 35.6895 45.5002 33.7692C46.3491 33.2983 46.6556 32.2284 46.1847 31.3794Z" fill="white"/>
<path d="M76.8692 35.3615C71.6256 30.1156 64.654 27.2266 57.2385 27.2266C56.2677 27.2266 55.4808 28.0136 55.4808 28.9844C55.4808 29.9552 56.2677 30.7422 57.2385 30.7422C70.6079 30.7422 81.4845 41.6242 81.4845 55C81.4845 68.3758 70.6079 79.2578 57.2385 79.2578C46.5845 79.2578 37.5136 72.3473 34.2684 62.7712L37.1748 62.4807C38.6487 62.3334 39.2896 60.5334 38.2418 59.4875L32.4997 53.7559C31.6627 52.9205 30.1867 53.1228 29.6504 54.2429L25.2975 60.781C24.4768 62.0138 25.4622 63.651 26.9355 63.5043L30.6797 63.13C34.0667 74.2545 44.479 82.7734 57.2385 82.7734C72.5828 82.7734 85 70.3513 85 55C85 47.5816 82.1124 40.6071 76.8692 35.3615Z" fill="white"/>
<path d="M57.2386 39.1798C48.5158 39.1798 41.4191 46.2768 41.4191 55.0001C41.4191 63.7234 48.5157 70.8204 57.2386 70.8204C65.9616 70.8204 73.0581 63.7234 73.0581 55.0001C73.0581 46.2768 65.9615 39.1798 57.2386 39.1798ZM55.9368 61.1158H49.0176C48.4734 61.1158 47.6959 60.7461 47.6959 60.1816V58.2939H47.6958C47.6958 55.2384 53.8182 53.4868 53.8182 51.015C53.8182 50.3923 53.4295 49.6332 52.341 49.6332C51.5636 49.6332 50.8833 50.0225 50.8833 51.0929C50.8833 51.6572 50.2807 52.2022 49.2896 52.2022C48.5122 52.2022 47.929 51.8519 47.929 50.6257C47.929 48.2513 50.1059 46.889 52.3216 46.889C54.5761 46.889 56.8503 48.3098 56.8503 50.9177C56.8503 55.141 50.8445 56.5227 50.8445 58.2938V58.469H55.9368C56.4227 58.469 56.8504 59.0723 56.8504 59.7729C56.8504 60.4736 56.4228 61.1158 55.9368 61.1158ZM66.2959 58.1189H65.4602V60.1819C65.4602 60.8047 64.7022 61.1161 63.9442 61.1161C63.1863 61.1161 62.4282 60.8048 62.4282 60.1819V58.1189H57.8801C56.9597 58.1187 56.6468 57.1781 57.0249 56.4839L61.5147 47.6677C61.8063 47.1033 62.2921 46.8892 62.7781 46.8892C63.3029 46.8892 64.294 47.3368 64.294 48.0374C64.294 48.1543 64.2551 48.271 64.1969 48.4072L60.7567 55.3163H62.4282V53.954C62.4282 53.3118 63.1861 53.0392 63.9442 53.0392C64.7022 53.0392 65.4602 53.3117 65.4602 53.954V55.3163H66.2959C66.9179 55.3163 67.2289 56.017 67.2289 56.7176C67.2289 57.4183 66.7624 58.1189 66.2959 58.1189Z" fill="white"/>
</g>
<defs>
<clipPath id="clip0">
<rect width="60" height="60" fill="white" transform="translate(25 25)"/>
</clipPath>
</defs>
</svg>
