<svg width="110" height="110" viewBox="0 0 110 110" fill="none" xmlns="http://www.w3.org/2000/svg">
<rect width="110" height="110" rx="10" fill="#7E4DE7" fill-opacity="0.85"/>
<g clip-path="url(#clip0)">
<path d="M76.0938 25C73.1859 25 70.8203 27.3655 70.8203 30.2734C70.8203 31.4529 71.2233 32.5319 71.8802 33.4113L63.2795 42.7436C62.8773 42.645 62.4634 42.5781 62.0312 42.5781C60.9517 42.5781 59.9488 42.9065 59.1121 43.4652L52.9791 38.8668C53.1347 38.37 53.2422 37.8521 53.2422 37.3047C53.2422 34.3968 50.8766 32.0312 47.9688 32.0312C45.0609 32.0312 42.6953 34.3968 42.6953 37.3047C42.6953 37.8521 42.8028 38.37 42.9584 38.8668L36.8254 43.4652C35.9887 42.9065 34.9858 42.5781 33.9062 42.5781C30.9984 42.5781 28.6328 44.9437 28.6328 47.8516C28.6328 50.7595 30.9984 53.125 33.9062 53.125C36.8141 53.125 39.1797 50.7595 39.1797 47.8516C39.1797 47.3042 39.0722 46.7862 38.9166 46.2895L45.0496 41.691C45.8862 42.2498 46.8892 42.5781 47.9688 42.5781C49.0483 42.5781 50.0512 42.2498 50.8879 41.691L57.0209 46.2895C56.8653 46.7862 56.7578 47.3042 56.7578 47.8516C56.7578 50.7595 59.1234 53.125 62.0312 53.125C64.9391 53.125 67.3047 50.7595 67.3047 47.8516C67.3047 46.6721 66.9017 45.5931 66.2448 44.7137L74.8455 35.3814C75.2477 35.48 75.6616 35.5469 76.0938 35.5469C79.0016 35.5469 81.3672 33.1813 81.3672 30.2734C81.3672 27.3655 79.0016 25 76.0938 25Z" fill="white"/>
<path d="M51.4844 53.125H44.4531C43.4815 53.125 42.6953 53.9112 42.6953 54.8828V77.9688H53.2422V54.8828C53.2422 53.9112 52.456 53.125 51.4844 53.125Z" fill="white"/>
<path d="M65.5469 60.1562H58.5156C57.544 60.1562 56.7578 60.9425 56.7578 61.9141V77.9688H67.3047V61.9141C67.3047 60.9425 66.5185 60.1562 65.5469 60.1562Z" fill="white"/>
<path d="M79.6094 46.0938H72.5781C71.6065 46.0938 70.8203 46.88 70.8203 47.8516V77.9688H81.3672V47.8516C81.3672 46.88 80.581 46.0938 79.6094 46.0938Z" fill="white"/>
<path d="M37.4219 63.6719H30.3906C29.419 63.6719 28.6328 64.4581 28.6328 65.4297V77.9688H39.1797V65.4297C39.1797 64.4581 38.3935 63.6719 37.4219 63.6719Z" fill="white"/>
<path d="M83.2422 81.4844C75.3924 81.4844 71.7896 81.4844 70.3667 81.4844C69.7163 81.4844 69.4839 81.4844 69.4857 81.4844C66.8955 81.4844 57.2546 81.4844 26.7578 81.4844C25.7862 81.4844 25 82.2706 25 83.2422C25 84.2138 25.7862 85 26.7578 85C48.0297 85 63.3707 85 83.2422 85C84.2138 85 85 84.2138 85 83.2422C85 82.2706 84.2138 81.4844 83.2422 81.4844Z" fill="white"/>
</g>
<defs>
<clipPath id="clip0">
<rect width="60" height="60" fill="white" transform="translate(25 25)"/>
</clipPath>
</defs>
</svg>
