<svg width="110" height="110" viewBox="0 0 110 110" fill="none" xmlns="http://www.w3.org/2000/svg">
<rect width="110" height="110" rx="10" fill="#7E4DE7" fill-opacity="0.85"/>
<g clip-path="url(#clip0)">
<path d="M72.8415 44.3543L76.1112 42.4469C69.0367 30.2936 53.7881 25.6508 41.141 31.7995V27.1465H37.3566V38.4998H48.7099V34.7154H43.8753C54.5803 30.1744 66.9918 34.3045 72.8415 44.3543Z" fill="white"/>
<path d="M38.3027 73.8389C29.529 66.7134 27.2198 54.2754 32.8512 44.4755L29.5701 42.5833C23.147 53.7681 25.5773 67.939 35.3603 76.3443H30.7338V80.1288H42.0871V68.7754H38.3027V73.8389Z" fill="white"/>
<path d="M77.9713 50.928L69.9445 58.9567L72.6201 61.6323L75.8369 58.4155C74.5751 70.139 64.6961 79.0365 52.905 79.0692V82.8536C66.9536 82.8167 78.6078 71.9746 79.6573 57.9652L83.3244 61.6323L86 58.9567L77.9713 50.928Z" fill="white"/>
</g>
<defs>
<clipPath id="clip0">
<rect width="60" height="60" fill="white" transform="translate(26 25)"/>
</clipPath>
</defs>
</svg>
