<svg width="199" height="65" viewBox="0 0 199 65" fill="none" xmlns="http://www.w3.org/2000/svg">
<g clip-path="url(#clip0)">
<path d="M4.71137 52.7509L2.66644 52.6882L2.6757 52.4518C3.15006 40.3319 14.1691 30.8327 27.2875 31.2349L29.3324 31.2976L29.3232 31.534C28.8488 43.654 17.8297 53.1531 4.71137 52.7509Z" stroke="white" stroke-width="5"/>
<path d="M33.9873 30.065L31.9939 30.5283L31.9429 30.2974C29.3312 18.4565 37.5807 6.44793 50.3687 3.47552L52.3621 3.0122L52.4131 3.2431C55.0248 15.084 46.7753 27.0926 33.9873 30.065Z" stroke="white" stroke-width="5"/>
<path d="M2.86418 5.96884L2.8544 5.70825L4.87419 5.70445C17.9863 5.67971 28.9854 15.4995 29.4415 27.6375L29.4513 27.898L27.4315 27.9018C14.3195 27.9265 3.32028 18.1068 2.86418 5.96884Z" fill="url(#paint0_linear)" stroke="white" stroke-width="5"/>
<path d="M47.8659 61.6164L47.7655 61.8615L45.8892 61.1935C33.7084 56.8597 27.6269 44.1031 32.3059 32.7009L32.4063 32.4561L34.2826 33.1237C46.4634 37.4577 52.5448 50.2143 47.8659 61.6164Z" fill="url(#paint1_linear)" stroke="white" stroke-width="5"/>
<path d="M61.2143 28.7212C61.1896 29.0414 61.1772 29.5103 61.1772 30.128C61.1649 31.1344 61.103 31.9179 60.9916 32.4783C60.8802 33.0387 60.5893 33.5077 60.1189 33.8851C59.6609 34.2625 58.9368 34.4512 57.9466 34.4512C57.7237 34.8172 57.6123 35.1317 57.6123 35.3948C57.6123 35.6121 57.6557 35.7208 57.7423 35.7208H66.9888C67.063 35.7208 67.1124 35.6578 67.1371 35.532C67.1619 35.4063 67.1745 35.2976 67.1745 35.2061C67.1745 34.7486 67.1124 34.497 66.9888 34.4512C65.9615 34.4512 65.1877 34.3025 64.668 34.0052C64.148 33.7078 63.9004 33.1302 63.9252 32.2724L64.4266 14.0358H61.4L48.7001 32.1009C48.1059 32.9358 47.4809 33.5363 46.8248 33.9022C46.1811 34.2682 45.3457 34.4512 44.3183 34.4512C44.0831 34.7943 43.9655 35.1088 43.9655 35.3948C43.9655 35.6121 44.015 35.7208 44.114 35.7208H53.5275C53.5895 35.7208 53.6328 35.6521 53.6575 35.5149C53.6823 35.3776 53.6947 35.2747 53.6947 35.2061C53.6947 34.7486 53.639 34.497 53.5275 34.4512C52.8096 34.4512 52.1846 34.3826 51.6523 34.2453C51.12 34.0967 50.8539 33.7707 50.8539 33.2675C50.8539 32.9701 51.0829 32.4783 51.5409 31.7921C52.0112 31.0944 52.6178 30.2366 53.3605 29.2187L53.7318 28.7212H61.2143ZM61.4372 17.9301L61.2701 27.6575H54.6973L61.4372 17.9301ZM87.0784 31.1916C87.8832 29.5103 88.5202 28.0292 88.9911 26.7483C89.4613 25.4559 89.6964 24.3236 89.6964 23.3514C89.6964 22.3907 89.4797 21.6644 89.0468 21.1726C88.6133 20.6808 87.8832 20.4349 86.8559 20.4349C85.7912 20.4349 84.6397 20.9724 83.4019 22.0476C82.1642 23.1112 81.0317 24.3178 80.0043 25.6674C78.9891 27.017 77.9186 28.5382 76.7925 30.2309L76.0307 31.346L75.6783 31.1573L75.845 30.8142C76.0186 30.4596 76.2848 29.7791 76.6435 28.7726C77.0149 27.7662 77.3495 26.7197 77.6461 25.6331C77.9434 24.5466 78.0917 23.6659 78.0917 22.9911C78.0917 22.2706 77.906 21.7216 77.5346 21.3442C77.1638 20.9667 76.6435 20.778 75.9755 20.778C75.1086 20.778 74.3107 20.9839 73.5799 21.3956C72.8498 21.8074 72.2002 22.3163 71.6305 22.9225C71.0734 23.5172 70.5043 24.2264 69.9225 25.0498L69.4212 25.7532L70.4796 26.611L70.8693 26.0448C71.4264 25.2442 71.884 24.6209 72.2433 24.1749C72.602 23.7174 72.9734 23.3342 73.3575 23.0254C73.7536 22.7166 74.137 22.5622 74.5084 22.5622C74.793 22.5622 74.9913 22.6595 75.1029 22.8539C75.2264 23.0483 75.2885 23.2599 75.2885 23.4886C75.2885 24.2435 75.0655 25.3472 74.6199 26.7997C74.1864 28.2408 73.5989 29.9964 72.8562 32.0665L72.6515 32.6498C72.4164 33.3018 72.2991 33.8508 72.2991 34.2968C72.2991 34.8573 72.4474 35.2918 72.7446 35.6007C73.0539 35.898 73.45 36.0467 73.9329 36.0467C74.2175 36.0467 74.5084 35.9266 74.8056 35.6865C75.1029 35.4348 75.369 35.1489 75.6042 34.8286C75.7151 34.6685 76.1112 34.0681 76.7925 33.0273C78.0422 31.1287 79.1564 29.4874 80.1343 28.1035C81.1122 26.7082 82.1274 25.4615 83.1795 24.3636C84.2436 23.2542 85.1353 22.6994 85.8527 22.6994C86.1626 22.6994 86.3914 22.7967 86.5397 22.9911C86.6886 23.1855 86.7628 23.4029 86.7628 23.6431C86.7628 23.8261 86.6886 24.152 86.5397 24.6209C86.3914 25.0784 86.1379 25.8219 85.7785 26.8512C85.16 28.6239 84.6707 30.1222 84.312 31.346C83.9527 32.5584 83.7733 33.5363 83.7733 34.2797C83.7733 34.8859 83.9096 35.3319 84.1821 35.6178C84.4666 35.9038 84.8133 36.0467 85.2215 36.0467C85.6676 36.0467 86.0327 35.9038 86.3172 35.6178C86.6018 35.3319 86.8927 34.8973 87.1899 34.314C88.8111 31.6491 90.5564 29.0528 92.426 26.5252C94.307 23.9862 95.8052 22.7166 96.9187 22.7166C97.2286 22.7166 97.4574 22.8138 97.6057 23.0083C97.7547 23.2027 97.8288 23.42 97.8288 23.6602C97.8288 23.969 97.742 24.3579 97.569 24.8268C97.3953 25.2957 97.1171 25.9762 96.733 26.8684C96.1265 28.2523 95.6563 29.4531 95.3223 30.4711C94.9883 31.489 94.821 32.4554 94.821 33.3704C94.821 34.1824 95.0498 34.8401 95.508 35.3433C95.9662 35.8466 96.5974 36.0982 97.4017 36.0982C98.1444 36.0982 98.8251 35.9381 99.4443 35.6178C100.063 35.2862 100.651 34.8286 101.208 34.2453C101.777 33.6506 102.434 32.8557 103.176 31.8607L103.585 31.346C103.251 31.0715 102.898 30.7913 102.526 30.5054L102.341 30.8485C102.143 31.1001 102 31.2888 101.913 31.4146C101.381 32.1009 100.967 32.6155 100.669 32.9587C100.385 33.3018 100.076 33.5877 99.7415 33.8165C99.4196 34.0338 99.0792 34.1424 98.7199 34.1424C98.1875 34.1424 97.9213 33.7707 97.9213 33.0273C97.9213 32.4669 98.0329 31.8492 98.256 31.1745C98.4911 30.4882 98.8441 29.5904 99.3143 28.481C99.834 27.2572 100.224 26.2393 100.484 25.4272C100.744 24.6152 100.874 23.8489 100.874 23.1284C100.874 22.3849 100.657 21.7559 100.224 21.2412C99.803 20.7151 99.1287 20.452 98.2002 20.452C97.0487 20.452 95.8483 20.9896 94.5979 22.0647C93.3602 23.1398 92.246 24.3464 91.2561 25.6846C90.2655 27.0113 89.2135 28.5382 88.0993 30.2652C87.7406 30.8256 87.5119 31.1802 87.4124 31.3289L87.0784 31.1916ZM123.34 30.8314C122.622 31.712 121.953 32.444 121.335 33.0273C120.728 33.5991 120.153 33.8851 119.608 33.8851C119.2 33.8851 118.903 33.7364 118.717 33.439C118.544 33.1302 118.457 32.7414 118.457 32.2724C118.457 31.712 118.55 31.0486 118.735 30.2824C118.934 29.5161 119.2 28.6411 119.534 27.6575L121.242 22.5279C121.304 22.2991 121.335 22.1505 121.335 22.0818C121.335 21.7502 121.18 21.47 120.87 21.2412C120.574 21.0125 120.208 20.8981 119.775 20.8981C119.503 20.8981 119.286 20.9667 119.125 21.104C118.965 21.2298 118.84 21.4128 118.754 21.653L118.012 23.9004C117.974 23.42 117.788 22.9111 117.454 22.3735C117.132 21.8359 116.643 21.3785 115.987 21.001C115.331 20.6236 114.508 20.4349 113.518 20.4349C111.958 20.4349 110.516 20.9038 109.192 21.8417C107.88 22.7681 106.834 23.9862 106.054 25.4959C105.287 26.9941 104.903 28.5611 104.903 30.1966C104.903 31.5119 105.132 32.6099 105.59 33.4905C106.048 34.3597 106.648 35.006 107.391 35.4291C108.146 35.8408 108.963 36.0467 109.842 36.0467C112.677 36.0467 114.861 34.4341 116.396 31.2088C116.235 32.2267 116.155 32.8386 116.155 33.0444C116.155 33.8679 116.291 34.5084 116.563 34.9659C116.848 35.4119 117.151 35.7093 117.473 35.858C117.807 36.0067 118.092 36.081 118.327 36.081C119.491 36.081 120.604 35.5893 121.669 34.6056C122.746 33.622 123.755 32.484 124.696 31.1916L123.693 30.4024L123.34 30.8314ZM117.213 25.7189C117.213 26.9198 116.897 28.1836 116.266 29.5103C115.647 30.837 114.843 31.9464 113.852 32.8386C112.862 33.7192 111.853 34.1595 110.826 34.1595C109.972 34.1595 109.285 33.7821 108.765 33.0273C108.257 32.2724 108.004 31.1859 108.004 29.7677C108.004 28.3838 108.307 27.1028 108.913 25.9247C109.532 24.7353 110.3 23.7917 111.216 23.0941C112.131 22.3964 112.992 22.0476 113.796 22.0476C114.416 22.0476 114.985 22.2191 115.505 22.5622C116.037 22.9053 116.452 23.3628 116.748 23.9347C117.058 24.4951 117.213 25.0899 117.213 25.7189ZM130.692 20.7609C129.566 20.7609 128.526 21.144 127.574 21.9103C126.633 22.6766 125.698 23.6888 124.77 24.9469L125.773 25.8219C126.23 25.147 126.608 24.6152 126.905 24.2264C127.202 23.8375 127.561 23.4657 127.982 23.1112C128.415 22.7452 128.836 22.5622 129.244 22.5622C129.541 22.5622 129.746 22.6595 129.857 22.8539C129.969 23.0369 130.024 23.2141 130.024 23.3857C130.024 23.9233 129.875 24.7982 129.579 26.0105C129.294 27.2115 128.774 28.8642 128.019 30.9686C127.858 31.4146 127.778 31.6377 127.778 31.6377C127.53 32.2782 127.344 32.7985 127.221 33.1988C127.097 33.5991 127.035 33.9709 127.035 34.314C127.035 34.8744 127.134 35.2862 127.332 35.5492C127.543 35.8122 127.814 35.9438 128.149 35.9438C128.657 35.9438 129.102 35.7779 129.486 35.4463C129.87 35.1146 130.266 34.5999 130.674 33.9022C131.169 32.9301 131.85 31.7634 132.717 30.4024C133.596 29.0414 134.499 27.7948 135.427 26.6625C136.356 25.5302 137.154 24.8096 137.822 24.5008C137.983 24.4208 138.194 24.335 138.454 24.2435C138.714 24.152 138.918 24.0776 139.066 24.0205C139.673 23.8032 140.162 23.6144 140.533 23.4543C140.917 23.2942 141.239 23.0883 141.499 22.8367C141.771 22.5851 141.907 22.2877 141.907 21.9446C141.907 21.5443 141.728 21.1898 141.369 20.881C141.01 20.5721 140.614 20.4177 140.18 20.4177C139.314 20.4177 138.46 20.7666 137.618 21.4643C136.789 22.1505 136.052 22.9511 135.409 23.8661C134.765 24.781 134.047 25.8847 133.255 27.1771C132.945 27.6918 132.673 28.1264 132.438 28.481L130.73 31.2946L130.377 31.1573L130.711 30.2138C131.404 28.3037 131.912 26.8055 132.234 25.7189C132.568 24.6209 132.735 23.7002 132.735 22.9568C132.735 22.3049 132.562 21.7788 132.215 21.3785C131.881 20.9667 131.374 20.7609 130.692 20.7609ZM149.872 17.0037C150.355 17.0037 150.739 16.8607 151.024 16.5748C151.309 16.2889 151.451 15.8257 151.451 15.1852C151.376 14.5676 151.123 14.0872 150.689 13.7441C150.269 13.401 149.78 13.2295 149.223 13.2295C148.727 13.2295 148.319 13.3667 147.997 13.6412C147.688 13.9157 147.533 14.316 147.533 14.8421C147.533 15.2767 147.651 15.6598 147.886 15.9916C148.121 16.3232 148.418 16.5748 148.777 16.7464C149.149 16.918 149.514 17.0037 149.872 17.0037ZM150.151 32.1352C149.668 32.81 149.223 33.3189 148.814 33.662C148.406 33.9937 148.016 34.1595 147.644 34.1595C147.261 34.1595 146.995 34.0395 146.846 33.7993C146.71 33.5477 146.642 33.256 146.642 32.9244C146.642 32.6384 146.673 32.3525 146.735 32.0665C146.797 31.7692 146.865 31.5347 146.939 31.3632L148.888 25.8219C149.185 24.964 149.334 24.1291 149.334 23.3171C149.334 21.3956 148.431 20.4349 146.623 20.4349C145.93 20.4349 145.28 20.6122 144.674 20.9667C144.067 21.3213 143.498 21.7845 142.966 22.3564C142.433 22.9168 141.771 23.6888 140.979 24.6724L141.944 25.3415C142.996 24.0033 143.776 23.0941 144.284 22.6137C144.804 22.1333 145.231 21.8932 145.565 21.8932C145.899 21.8932 146.153 22.0018 146.326 22.2191C146.512 22.425 146.605 22.7052 146.605 23.0598C146.605 23.3228 146.549 23.6087 146.438 23.9175C146.326 24.2149 146.258 24.4094 146.233 24.5008L144.358 29.3731C144.074 30.0936 143.857 30.7341 143.709 31.2946C143.56 31.855 143.485 32.3982 143.485 32.9244C143.485 33.4848 143.603 34.0052 143.838 34.4855C144.086 34.9659 144.426 35.349 144.859 35.635C145.305 35.9095 145.825 36.0467 146.419 36.0467C147.409 36.0467 148.294 35.7665 149.074 35.2061C149.854 34.6342 150.591 33.8851 151.284 32.9587L152.416 31.4318L151.209 30.6598L150.151 32.1352ZM154.607 29.8878C154.384 30.5626 154.218 31.123 154.106 31.569C154.007 32.0037 153.963 32.4383 153.976 32.8729C153.976 33.7764 154.223 34.5313 154.719 35.1375C155.226 35.7436 155.919 36.0467 156.798 36.0467C157.826 36.0467 158.741 35.7608 159.546 35.1889C160.363 34.6171 161.112 33.8737 161.793 32.9587L162.925 31.4318L161.719 30.6598L160.66 32.1352C159.682 33.4848 158.822 34.1595 158.079 34.1595C157.745 34.1595 157.492 34.0338 157.318 33.7821C157.157 33.5191 157.076 33.1988 157.076 32.8214C157.076 32.444 157.17 31.9408 157.355 31.3117L162.183 14.6705C162.195 14.6019 162.245 14.4018 162.331 14.0701C162.418 13.727 162.461 13.4639 162.461 13.2809C162.461 13.0636 162.406 12.9092 162.294 12.8177C162.195 12.7262 162.04 12.6805 161.83 12.6805C161.755 12.6805 161.632 12.6919 161.458 12.7148L160.419 12.8348C159.106 12.9835 158.154 13.1036 157.559 13.1952C156.966 13.2752 156.501 13.3838 156.167 13.5211C155.832 13.6469 155.666 13.8185 155.666 14.0358C155.666 14.3331 155.814 14.5047 156.111 14.5504L159.101 14.722L154.83 29.1673L154.607 29.8878ZM165.488 29.8878C165.265 30.5626 165.098 31.123 164.986 31.569C164.887 32.0037 164.844 32.4383 164.856 32.8729C164.856 33.7764 165.104 34.5313 165.599 35.1375C166.106 35.7436 166.8 36.0467 167.679 36.0467C168.706 36.0467 169.622 35.7608 170.427 35.1889C171.243 34.6171 171.992 33.8737 172.673 32.9587L173.806 31.4318L172.598 30.6598L171.541 32.1352C170.563 33.4848 169.702 34.1595 168.959 34.1595C168.625 34.1595 168.372 34.0338 168.198 33.7821C168.037 33.5191 167.957 33.1988 167.957 32.8214C167.957 32.444 168.05 31.9408 168.236 31.3117L173.063 14.6705C173.075 14.6019 173.125 14.4018 173.211 14.0701C173.298 13.727 173.341 13.4639 173.341 13.2809C173.341 13.0636 173.285 12.9092 173.175 12.8177C173.075 12.7262 172.92 12.6805 172.71 12.6805C172.636 12.6805 172.512 12.6919 172.339 12.7148L171.299 12.8348C169.987 12.9835 169.034 13.1036 168.44 13.1952C167.845 13.2752 167.381 13.3838 167.047 13.5211C166.713 13.6469 166.546 13.8185 166.546 14.0358C166.546 14.3331 166.694 14.5047 166.992 14.5504L169.981 14.722L165.71 29.1673L165.488 29.8878ZM183.405 17.0037C183.888 17.0037 184.271 16.8607 184.556 16.5748C184.841 16.2889 184.983 15.8257 184.983 15.1852C184.909 14.5676 184.655 14.0872 184.222 13.7441C183.801 13.401 183.312 13.2295 182.755 13.2295C182.26 13.2295 181.851 13.3667 181.529 13.6412C181.22 13.9157 181.065 14.316 181.065 14.8421C181.065 15.2767 181.183 15.6598 181.418 15.9916C181.654 16.3232 181.95 16.5748 182.31 16.7464C182.681 16.918 183.046 17.0037 183.405 17.0037ZM183.684 32.1352C183.201 32.81 182.755 33.3189 182.346 33.662C181.938 33.9937 181.548 34.1595 181.177 34.1595C180.793 34.1595 180.527 34.0395 180.378 33.7993C180.242 33.5477 180.174 33.256 180.174 32.9244C180.174 32.6384 180.205 32.3525 180.267 32.0665C180.329 31.7692 180.397 31.5347 180.471 31.3632L182.421 25.8219C182.718 24.964 182.867 24.1291 182.867 23.3171C182.867 21.3956 181.963 20.4349 180.155 20.4349C179.463 20.4349 178.812 20.6122 178.206 20.9667C177.599 21.3213 177.03 21.7845 176.498 22.3564C175.966 22.9168 175.303 23.6888 174.511 24.6724L175.476 25.3415C176.529 24.0033 177.309 23.0941 177.816 22.6137C178.336 22.1333 178.763 21.8932 179.097 21.8932C179.432 21.8932 179.685 22.0018 179.859 22.2191C180.044 22.425 180.137 22.7052 180.137 23.0598C180.137 23.3228 180.081 23.6087 179.97 23.9175C179.859 24.2149 179.79 24.4094 179.766 24.5008L177.89 29.3731C177.606 30.0936 177.389 30.7341 177.241 31.2946C177.092 31.855 177.018 32.3982 177.018 32.9244C177.018 33.4848 177.136 34.0052 177.371 34.4855C177.618 34.9659 177.959 35.349 178.392 35.635C178.837 35.9095 179.357 36.0467 179.951 36.0467C180.942 36.0467 181.827 35.7665 182.606 35.2061C183.386 34.6342 184.123 33.8851 184.816 32.9587L185.949 31.4318L184.742 30.6598L183.684 32.1352ZM190.664 23.6259C190.664 22.4136 191.154 21.8074 192.132 21.8074C192.75 21.8074 193.301 21.9103 193.784 22.1161C194.279 22.322 194.7 22.5679 195.046 22.8539C195.406 23.1398 195.795 23.5001 196.216 23.9347C196.637 24.3579 196.977 24.6667 197.237 24.8611C197.498 25.0441 197.769 25.1356 198.055 25.1356C198.327 25.1356 198.556 25.0556 198.741 24.8954C198.927 24.7353 199.02 24.5409 199.02 24.3121C199.02 23.5001 198.729 22.8024 198.147 22.2191C197.565 21.6244 196.841 21.1783 195.975 20.881C195.108 20.5836 194.254 20.4349 193.412 20.4349C192.583 20.4349 191.779 20.5493 190.999 20.778C190.232 21.0068 189.594 21.3727 189.086 21.876C188.579 22.3793 188.325 23.0254 188.325 23.8146C188.325 24.5466 188.492 25.1985 188.826 25.7704C189.173 26.3422 189.588 26.8283 190.071 27.2286C190.565 27.6289 191.221 28.0979 192.038 28.6354C192.781 29.1158 193.363 29.5332 193.784 29.8878C194.217 30.2309 194.582 30.6369 194.88 31.1058C195.176 31.5634 195.325 32.078 195.325 32.6498C195.325 33.3247 195.189 33.8107 194.916 34.1081C194.644 34.394 194.267 34.537 193.784 34.537C192.199 34.4798 190.98 34.1367 190.126 33.5077C189.285 32.8672 188.709 32.3182 188.399 31.8607C188.102 31.3918 187.941 31.1573 187.916 31.1573C186.815 31.1573 186.264 31.5862 186.264 32.444C186.264 33.2217 186.617 33.8851 187.323 34.4341C188.041 34.9716 188.913 35.3776 189.941 35.6521C190.968 35.9152 191.946 36.0467 192.874 36.0467C194.285 36.0467 195.467 35.7608 196.42 35.1889C197.386 34.6056 197.869 33.6964 197.869 32.4612C197.869 31.569 197.664 30.7799 197.256 30.0936C196.847 29.4074 196.352 28.8298 195.771 28.3609C195.201 27.892 194.459 27.3601 193.542 26.7654C192.874 26.3308 192.348 25.9705 191.964 25.6846C191.593 25.3987 191.284 25.0841 191.036 24.741C190.789 24.3979 190.664 24.0262 190.664 23.6259Z" fill="white"/>
</g>
<defs>
<linearGradient id="paint0_linear" x1="-3.16997" y1="0.496585" x2="29.7085" y2="28.9618" gradientUnits="userSpaceOnUse">
<stop offset="0.369792" stop-color="white"/>
<stop offset="1" stop-color="#5310E0"/>
</linearGradient>
<linearGradient id="paint1_linear" x1="51.1665" y1="68.6939" x2="31.8815" y2="31.7677" gradientUnits="userSpaceOnUse">
<stop offset="0.369792" stop-color="white"/>
<stop offset="1" stop-color="#5310E0"/>
</linearGradient>
<clipPath id="clip0">
<rect width="199" height="65" fill="white"/>
</clipPath>
</defs>
</svg>
